<?xml version="1.0" encoding="UTF-8"?><svg id="a" xmlns="http://www.w3.org/2000/svg" viewBox="0 0 1382 1000"><defs><style>.b{fill:#fff;}</style></defs><path class="b" d="M955.07,426.93v198h-24.75v-173.25h-173.25v-24.75h198ZM930.32,371.24h-123.75v24.75h148.5v-148.5h-24.75v123.75ZM986.01,426.93v266.06h24.75v-241.31h123.75v-24.75h-148.5ZM1010.76,371.24v-173.25h-24.75v198h198v-24.75h-173.25ZM404.7,737.37c-24.22,27.55-50.03,40.36-81.12,40.36-55.39,0-100.45-46.73-100.45-104.15v-.9c0-57.9,43.9-103.28,99.98-103.28,30.67,0,56.23,12.02,80.38,37.8l5.1,5.47,17.96-16.75-5.18-5.52c-21.1-22.37-49.26-45.25-97.78-45.25-34.13,0-65.96,13.47-89.57,37.96-23.27,24.09-36.08,56.05-36.08,89.99v.92c0,70.58,56.16,127.97,125.17,127.97,39.44,0,72.11-15.8,99.9-48.31l4.65-5.49-17.86-16.67-5.1,5.84ZM497.76,594.74c17.67-27.73,47.28-49.6,86.64-49.6l8.43.08v24.22h-9.83c-52.83,0-85.24,58.24-85.24,99.98v127.05h-24.75v-245.78h24.75v44.06M831.32,550.68v138.12c0,69.81-40.04,113.21-104.47,113.21h-1.85c-64.42,0-104.41-43.4-104.41-113.21v-138.12h24.72v137.19c0,57.08,29.4,89.86,80.61,89.86s80.64-32.78,80.64-89.86v-137.19h24.75Z"/><path class="b" d="M1065.44,693.42c-1.56,0-3.02-.29-4.38-.87-1.36-.58-2.56-1.39-3.59-2.42-1.03-1.03-1.84-2.23-2.42-3.59-.58-1.36-.87-2.82-.87-4.38s.29-3.02.87-4.38c.58-1.36,1.39-2.56,2.42-3.59,1.03-1.03,2.23-1.84,3.59-2.42s2.82-.87,4.38-.87,3.02.29,4.38.87c1.36.58,2.56,1.39,3.59,2.42,1.03,1.03,1.84,2.23,2.42,3.59.58,1.36.87,2.82.87,4.38s-.29,3.02-.87,4.38c-.58,1.36-1.39,2.56-2.42,3.59-1.03,1.03-2.23,1.84-3.59,2.42-1.36.58-2.82.87-4.38.87ZM1065.44,691.31c1.69,0,3.23-.41,4.62-1.24,1.39-.83,2.49-1.93,3.32-3.32s1.24-2.93,1.24-4.62-.41-3.23-1.24-4.62-1.93-2.49-3.32-3.32c-1.39-.83-2.93-1.24-4.62-1.24s-3.23.41-4.62,1.24c-1.39.83-2.49,1.93-3.32,3.32s-1.24,2.93-1.24,4.62.41,3.23,1.24,4.62,1.93,2.49,3.32,3.32c1.39.83,2.93,1.24,4.62,1.24ZM1061.62,687.21v-10.4h4.99c.53,0,1.04.12,1.53.37.49.25.9.62,1.23,1.1s.49,1.08.49,1.78-.17,1.31-.5,1.83-.76.9-1.27,1.18c-.51.27-1.04.41-1.59.41h-3.86v-1.42h3.38c.48,0,.91-.17,1.29-.51.38-.34.57-.83.57-1.47s-.19-1.13-.57-1.41c-.38-.28-.8-.42-1.25-.42h-2.62v8.98h-1.82ZM1067.68,682.38l2.59,4.83h-2.03l-2.52-4.83h1.96Z"/></svg>